<svg xmlns="https://www.w3.org/2000/svg" width="220" height="220" preserveAspectRatio="xMidYMid meet" version="1.0" viewBox="0 0 165 165"><metadata>Created by potrace 1.11, written by Peter Selinger 2001-2013</metadata><g fill="#000" stroke="none"><path d="M116 1634 c-14 -14 -16 -101 -16 -808 0 -913 -11 -826 103 -826 46 0 70 5 81 16 14 13 16 64 16 400 l0 384 609 0 c541 0 611 2 625 16 20 19 21 48 3 66 -10 10 -969 589 -1234 745 -48 28 -162 33 -187 7z" transform="translate(0.000000,165.000000) scale(0.100000,-0.100000)"/></g></svg>